<?xml version="1.0" standalone="no"?>
<!DOCTYPE svg PUBLIC "-//W3C//DTD SVG 1.1//EN"
  "http://www.w3.org/Graphics/SVG/1.1/DTD/svg11.dtd">
<svg xmlns="http://www.w3.org/2000/svg" version="1.1"
     width="522px" height="160px" viewBox="-15 -112 522 180">
  <defs>
    <style type="text/css"><![CDATA[
      .markmap-node {
        cursor: pointer;
      }

      .markmap-node-circle {
        fill: #fff;
        stroke-width: 1.5px;
      }

      .markmap-node-text {
        fill:  #000;
        font: 10px sans-serif;
      }

      .markmap-link {
        fill: none;
      }
    ]]></style>
  </defs>
  <g><path class="markmap-link" stroke="#929292" stroke-width="1" d="M320.935546875,40C350.935546875,40 350.935546875,27.5 380.935546875,27.5"></path><path class="markmap-link" stroke="#929292" stroke-width="1" d="M320.935546875,40C350.935546875,40 350.935546875,52.5 380.935546875,52.5"></path><path class="markmap-link" stroke="#929292" stroke-width="1" d="M313.142578125,-40C343.142578125,-40 343.142578125,-77.5 373.142578125,-77.5"></path><path class="markmap-link" stroke="#929292" stroke-width="1" d="M313.142578125,-40C343.142578125,-40 343.142578125,-52.5 373.142578125,-52.5"></path><path class="markmap-link" stroke="#929292" stroke-width="1" d="M313.142578125,-40C343.142578125,-40 343.142578125,-27.5 373.142578125,-27.5"></path><path class="markmap-link" stroke="#929292" stroke-width="1" d="M313.142578125,-40C343.142578125,-40 343.142578125,-2.5 373.142578125,-2.5"></path><path class="markmap-link" stroke="#929292" stroke-width="1" d="M198.5810546875,0C228.5810546875,0 228.5810546875,-40 258.5810546875,-40"></path><path class="markmap-link" stroke="#929292" stroke-width="1" d="M198.5810546875,0C228.5810546875,0 228.5810546875,40 258.5810546875,40"></path><path class="markmap-link" stroke="#929292" stroke-width="1" d="M44.1904296875,0C74.1904296875,0 74.1904296875,0 104.1904296875,0"></path><g class="markmap-node" transform="translate(380.935546875,52.5)"><rect class="markmap-node-rect" y="-10" x="-1" width="61.5712890625" height="20" fill="#dfdfdf" rx="10" ry="10" stroke="#929292" stroke-width="1"></rect><circle class="markmap-node-circle" cx="59.5712890625" stroke="#929292" r="4.5" style="display: none;"></circle><text class="markmap-node-text" x="10" dy="3" text-anchor="start" style="fill-opacity: 1;">Iterative</text></g><g class="markmap-node" transform="translate(380.935546875,27.5)"><rect class="markmap-node-rect" y="-10" x="-1" width="70.4580078125" height="20" fill="#dfdfdf" rx="10" ry="10" stroke="#929292" stroke-width="1"></rect><circle class="markmap-node-circle" cx="68.4580078125" stroke="#929292" r="4.5" style="display: none;"></circle><text class="markmap-node-text" x="10" dy="3" text-anchor="start" style="fill-opacity: 1;">Recursive</text></g><g class="markmap-node" transform="translate(258.5810546875,40)"><rect class="markmap-node-rect" y="-10" x="-1" width="64.3544921875" height="20" fill="#dfdfdf" rx="10" ry="10" stroke="#929292" stroke-width="1"></rect><circle class="markmap-node-circle" cx="62.3544921875" stroke="#929292" r="4.5"></circle><text class="markmap-node-text" x="10" dy="3" text-anchor="start" style="fill-opacity: 1;">Methods</text></g><g class="markmap-node" transform="translate(373.142578125,-2.5)"><rect class="markmap-node-rect" y="-10" x="-1" width="120.6630859375" height="20" fill="#dfdfdf" rx="10" ry="10" stroke="#929292" stroke-width="1"></rect><circle class="markmap-node-circle" cx="118.6630859375" stroke="#929292" r="4.5" style="display: none;"></circle><text class="markmap-node-text" x="10" dy="3" text-anchor="start" style="fill-opacity: 1;">Level-order Traversal</text></g><g class="markmap-node" transform="translate(373.142578125,-27.5)"><rect class="markmap-node-rect" y="-10" x="-1" width="116.7666015625" height="20" fill="#dfdfdf" rx="10" ry="10" stroke="#929292" stroke-width="1"></rect><circle class="markmap-node-circle" cx="114.7666015625" stroke="#929292" r="4.5" style="display: none;"></circle><text class="markmap-node-text" x="10" dy="3" text-anchor="start" style="fill-opacity: 1;">Post-order Traversal</text></g><g class="markmap-node" transform="translate(373.142578125,-52.5)"><rect class="markmap-node-rect" y="-10" x="-1" width="105.0966796875" height="20" fill="#dfdfdf" rx="10" ry="10" stroke="#929292" stroke-width="1"></rect><circle class="markmap-node-circle" cx="103.0966796875" stroke="#929292" r="4.5" style="display: none;"></circle><text class="markmap-node-text" x="10" dy="3" text-anchor="start" style="fill-opacity: 1;">In-order Traversal</text></g><g class="markmap-node" transform="translate(373.142578125,-77.5)"><rect class="markmap-node-rect" y="-10" x="-1" width="109.359375" height="20" fill="#dfdfdf" rx="10" ry="10" stroke="#929292" stroke-width="1"></rect><circle class="markmap-node-circle" cx="107.359375" stroke="#929292" r="4.5" style="display: none;"></circle><text class="markmap-node-text" x="10" dy="3" text-anchor="start" style="fill-opacity: 1;">Pre-order traversal</text></g><g class="markmap-node" transform="translate(258.5810546875,-40)"><rect class="markmap-node-rect" y="-10" x="-1" width="56.5615234375" height="20" fill="#dfdfdf" rx="10" ry="10" stroke="#929292" stroke-width="1"></rect><circle class="markmap-node-circle" cx="54.5615234375" stroke="#929292" r="4.5"></circle><text class="markmap-node-text" x="10" dy="3" text-anchor="start" style="fill-opacity: 1;">Orders</text></g><g class="markmap-node" transform="translate(104.1904296875,0)"><rect class="markmap-node-rect" y="-10" x="-1" width="96.390625" height="20" fill="#dfdfdf" rx="10" ry="10" stroke="#929292" stroke-width="1"></rect><circle class="markmap-node-circle" cx="94.390625" stroke="#929292" r="4.5"></circle><text class="markmap-node-text" x="10" dy="3" text-anchor="start" style="fill-opacity: 1;">Traverse a Tree</text></g><g class="markmap-node" transform="translate(0,0)"><rect class="markmap-node-rect" y="-10" x="-1" width="46.1904296875" height="20" fill="#dfdfdf" rx="10" ry="10" stroke="#929292" stroke-width="1"></rect><circle class="markmap-node-circle" cx="44.1904296875" stroke="#929292" r="4.5"></circle><text class="markmap-node-text" x="10" dy="3" text-anchor="start" style="fill-opacity: 1;">Tree</text></g></g>
</svg>